inDegrees=no
num_controls=7
num_derivatives=13
num_iterations=40
num_multipliers=7
num_parameters=0
num_slacks=7
num_states=26
objective=0.493781
objective_accelerations=0.005920
objective_balance=0.009859
objective_effort=0.015397
objective_height=0.457382
objective_ligament=0.005223
solver_duration=580.284679
status=Solve_Succeeded
success=true
DataType=double
version=3
OpenSimVersion=4.5
endheader
time	/jointset/ground_pelvis/pelvis_tilt/value	/jointset/ground_pelvis/pelvis_tx/value	/jointset/ground_pelvis/pelvis_ty/value	/jointset/hip_l/hip_flexion_l/value	/jointset/hip_l/hip_adduction_l/value	/jointset/hip_l/hip_rotation_l/value	/jointset/back/lumbar_extension/value	/jointset/patellofemoral_l/patellar_flexion_l/value	/jointset/knee_l/knee_flexion_l/value	/jointset/knee_l/knee_adduction_l/value	/jointset/knee_l/knee_rotation_l/value	/jointset/ankle_l/ankle_angle_l/value	/jointset/subtalar_l/subtalar_angle_l/value	/jointset/ground_pelvis/pelvis_tilt/speed	/jointset/ground_pelvis/pelvis_tx/speed	/jointset/ground_pelvis/pelvis_ty/speed	/jointset/hip_l/hip_flexion_l/speed	/jointset/hip_l/hip_adduction_l/speed	/jointset/hip_l/hip_rotation_l/speed	/jointset/back/lumbar_extension/speed	/jointset/patellofemoral_l/patellar_flexion_l/speed	/jointset/knee_l/knee_flexion_l/speed	/jointset/knee_l/knee_adduction_l/speed	/jointset/knee_l/knee_rotation_l/speed	/jointset/ankle_l/ankle_angle_l/speed	/jointset/subtalar_l/subtalar_angle_l/speed	/forceset/tau_hip_flexion_l	/forceset/tau_hip_adduction_l	/forceset/tau_hip_rotation_l	/forceset/tau_knee_flexion_l	/forceset/tau_ankle_angle_l	/forceset/tau_subtalar_angle_l	/forceset/tau_lumbar_extension	lambda_cid13_p0	lambda_cid13_p1	lambda_cid13_p2	lambda_cid13_p3	lambda_cid13_p4	lambda_cid13_p5	lambda_cid14_p0	/jointset/ground_pelvis/pelvis_tilt/accel	/jointset/ground_pelvis/pelvis_tx/accel	/jointset/ground_pelvis/pelvis_ty/accel	/jointset/hip_l/hip_flexion_l/accel	/jointset/hip_l/hip_adduction_l/accel	/jointset/hip_l/hip_rotation_l/accel	/jointset/back/lumbar_extension/accel	/jointset/patellofemoral_l/patellar_flexion_l/accel	/jointset/knee_l/knee_flexion_l/accel	/jointset/knee_l/knee_adduction_l/accel	/jointset/knee_l/knee_rotation_l/accel	/jointset/ankle_l/ankle_angle_l/accel	/jointset/subtalar_l/subtalar_angle_l/accel	gamma_cid13_p0	gamma_cid13_p1	gamma_cid13_p2	gamma_cid13_p3	gamma_cid13_p4	gamma_cid13_p5	gamma_cid14_p0
1.5	-0.1301239787842025	0.04015988265327038	0.901432796173972	0.391638134810173	-0.1938426046809245	-0.04598372607507713	-0.0433912619365216	0.04183480459467228	0.04183480459468082	-0.02539954063458724	-0.05445048365081392	-0.04025398451043202	0.05263087937833933	0.0007318094417312518	-0.005204328162088901	-0.0009810823513215993	0.009818756794248221	-0.0002581142583247699	0.002616414332901931	-0.01654299339848545	0.007098953481036307	0.007098953481033222	-9.139342169498812e-05	-0.0008375174868243096	-0.003476694120436877	-0.001245452952885183	0.022702684056583	0.05557893012326255	0.01356554312614993	-0.1911325016689178	0.2134082707307799	-0.05236112133121418	0.02242541505261568	24.34774644634028	23.67495576655283	-10.11380354245648	1.20740977284821	-629.7155398002679	-13.44433049648024	-34.28793626778547	0.01860555785169614	-0.01084161118055004	0.0006115019107962275	-0.009854950918966109	0.001602797182044151	-0.003060014737524344	0.03338568583950222	-0.006175852841438509	-0.006175852841438472	0.002493676071833436	0.001806661395545394	-0.0155814647691508	-0.002664343500194773	-7.28851695466477e-12	5.201428072493784e-12	5.980764054252493e-12	7.226038853453783e-12	-2.046156391551399e-11	4.975769106318633e-12	-2.1391309097303e-12
1.51	-0.1301157338365673	0.04010730004535681	0.9014230157746189	0.391735831198586	-0.1938451069703286	-0.04595771770438698	-0.04355501727603119	0.04190548777204438	0.04190548777210339	-0.025400332427569	-0.05445876508468041	-0.04028952610423479	0.05261829161801347	0.0009169910665514177	-0.005311890909859114	-0.0009749643522717279	0.009720153663322906	-0.000242397751277287	0.002585059970420106	-0.01620750835272055	0.007037349202588318	0.007037349202585907	-6.709265801324821e-05	-0.0008186431265799392	-0.0036314031613203	-0.00127208874463511	0.02265937807741615	0.05556905502969319	0.01356726822668571	-0.1911652308674995	0.2134722062563371	-0.05234446064665816	0.02247379293475541	24.36916891311614	23.66602293931771	-10.11472536966368	1.198846304142684	-629.7171489377562	-13.45702433321614	-34.29005782699424	0.01844611982243375	-0.01066824338748123	0.0006169369676749029	-0.009918072774450906	0.001547957894620892	-0.003203121495076214	0.03371484192616181	-0.00620263184669891	-0.006202631848020759	0.002379152584008121	0.001946753933051244	-0.01538241389556654	-0.002661647036932784	5.320704778449525e-12	9.428977851901184e-12	-7.827510490276632e-13	-4.891469701780064e-12	3.805410769243191e-11	1.89098357792999e-11	1.256748136970226e-14
1.52	-0.130105642741481	0.04005365088259985	0.901413297552882	0.3918325305399069	-0.1938474537185154	-0.04593202887222757	-0.04371540077949322	0.04197554492332008	0.04197554492332036	-0.02540088503761196	-0.05446685398917413	-0.04032660814642838	0.05260543780976166	0.001101038891893062	-0.00541763913076861	-0.0009686468280643704	0.009619347388398192	-0.0002270060270056576	0.002552506628333796	-0.01586862618774368	0.006973748264206829	0.006973748264205089	-4.355685171357222e-05	-0.0007990115425476239	-0.003784783808083963	-0.001298662537402961	0.02261607209651793	0.05555917993558683	0.01356899332558027	-0.1911979600667673	0.2135361417817064	-0.05232779996266375	0.02252217081561292	24.39048744484301	23.65706571720232	-10.11559465564965	1.191235795599203	-629.7198048380836	-13.46993119227704	-34.29216060372003	0.01837879795994401	-0.01047870581239098	0.0006514069420914123	-0.01029557971768266	0.001537840626820192	-0.003299810658390727	0.03406510968377461	-0.006575184827379826	-0.006575184827379813	0.002340684595301722	0.001958106153431438	-0.01531578594977646	-0.00265194370509467	9.821868560859346e-12	4.318198833493994e-12	-2.25462802784193e-12	-8.92708448868226e-12	5.718552682708811e-11	1.354472540758163e-11	1.085313760397054e-12
1.53	-0.130093718944595	0.03999895528830066	0.9014036435583377	0.3919282096990002	-0.193849649871549	-0.04590666886309408	-0.04387237924977521	0.04204495454851417	0.04204495454854999	-0.02540120926798419	-0.05447474552452968	-0.04036521577622981	0.052592317283404	0.001283338473430277	-0.005520976766566116	-0.0009621098265217065	0.009515965268729373	-0.0002124508518813419	0.002519569941980965	-0.01552659439285756	0.006907657062130428	0.006907657062128194	-2.173775127690221e-05	-0.0007794533711380991	-0.003936374038995012	-0.001325566873897751	0.0225883128879998	0.0555471445827557	0.01357074140029646	-0.1912578075106308	0.2136404424309293	-0.05231263432356636	0.02255968206263136	24.42484228090287	23.64793019409028	-10.11809743379679	1.173930802265571	-629.722258582366	-13.48257489299245	-34.29424410772081	0.01809824633693798	-0.01018586057465853	0.0006611887021529851	-0.01043739684194752	0.001380413171291519	-0.003279386887052679	0.03434324169802493	-0.006704042286776391	-0.006704042288119719	0.002035241595355724	0.001930999395601188	-0.01502543910030671	-0.00272830102134532	5.708220770645762e-12	-1.071455453259109e-11	1.895860500588746e-12	-4.375687146732163e-12	3.447117770887444e-11	-1.232576057412969e-11	1.011673420347227e-12
1.54	-0.130079983610092	0.03994324140401891	0.9013940562022088	0.392022839463075	-0.1938517072613493	-0.04588163597867915	-0.04402592319665984	0.04211368767078552	0.04211368767078618	-0.025401328763517	-0.05448244621303957	-0.04040532826779163	0.05257892398919849	0.0014633463779416	-0.005621297127281824	-0.0009553191449809175	0.009409468398860608	-0.000199253388062487	0.002487081685143716	-0.01518172150574733	0.006838447684566103	0.006838447684563372	-2.609897801610821e-06	-0.0007608421292818771	-0.004085756167429698	-0.00135321610640602	0.0225605536778028	0.0555351092295461	0.0135724894739589	-0.1913176549550843	0.2137447430800144	-0.05229746868486781	0.02259719330834415	24.45909120696605	23.63877116516801	-10.12054843325128	1.157559638050428	-629.7258091430425	-13.49543350719104	-34.29630732729397	0.01792046255905323	-0.009875250800333607	0.0007021429415006023	-0.01091852975643493	0.00126629836569563	-0.0032101247552392	0.03463332813064322	-0.007198819924153509	-0.007198819924153442	0.001802435202945696	0.001768720243082533	-0.01487416545944811	-0.002800922909185585	1.85753874085582e-12	-1.753343215762751e-11	3.990410703763505e-12	-2.061382119206593e-13	1.079206798478699e-11	-2.665572749152368e-11	7.713487186050679e-13
